<?xml version="1.0" encoding="UTF-8"?>
<svg id="Layer_2" data-name="Layer 2" xmlns="http://www.w3.org/2000/svg" viewBox="0 0 5.33 22.36">
  <defs>
    <style>
      .cls-1 {
        fill: #fff;
      }
    </style>
  </defs>
  <g id="FILE">
    <g>
      <path class="cls-1" d="M5.33,2.07c0,.14-.06.26-.17.35-.28.24-.57.48-.85.72-.1.08-.13.17-.1.3.09.36.18.73.27,1.09.05.19-.02.37-.18.49-.16.11-.35.12-.52.02-.36-.22-.71-.44-1.07-.66-.03-.02-.05-.02-.08,0-.36.22-.71.44-1.07.66-.27.16-.61.04-.69-.26-.03-.09-.02-.18,0-.26.09-.36.18-.73.27-1.09.03-.11,0-.19-.09-.27-.29-.24-.58-.48-.86-.73-.15-.12-.21-.28-.16-.47.04-.18.16-.31.35-.35.11-.02.23-.02.34-.03.3-.02.6-.04.9-.07.1,0,.16-.07.2-.16.14-.35.29-.71.43-1.06.11-.28.44-.38.69-.22.08.05.14.13.17.21.14.35.29.7.43,1.05.04.11.12.16.23.17.33.02.66.05.99.07.07,0,.15,0,.22.02.22.05.36.23.36.46Z"/>
      <path class="cls-1" d="M5.33,10.69c0,.14-.06.26-.17.35-.28.24-.57.48-.85.72-.1.08-.13.17-.1.3.09.36.18.73.27,1.09.05.19-.02.37-.18.49-.16.11-.35.12-.52.02-.36-.22-.71-.44-1.07-.66-.03-.02-.05-.02-.08,0-.36.22-.71.44-1.07.66-.27.16-.61.04-.69-.26-.03-.09-.02-.18,0-.26.09-.36.18-.73.27-1.09.03-.11,0-.19-.09-.27-.29-.24-.58-.48-.86-.73-.15-.12-.21-.28-.16-.47.04-.18.16-.31.35-.35.11-.02.23-.02.34-.03.3-.02.6-.04.9-.07.1,0,.16-.07.2-.16.14-.35.29-.71.43-1.06.11-.28.44-.38.69-.22.08.05.14.13.17.21.14.35.29.7.43,1.05.04.11.12.16.23.17.33.02.66.05.99.07.07,0,.15,0,.22.02.22.05.36.23.36.46Z"/>
      <path class="cls-1" d="M5.33,19.32c0,.14-.06.26-.17.35-.28.24-.57.48-.85.72-.1.08-.13.17-.1.3.09.36.18.73.27,1.09.05.19-.02.37-.18.49-.16.11-.35.12-.52.02-.36-.22-.71-.44-1.07-.66-.03-.02-.05-.02-.08,0-.36.22-.71.44-1.07.66-.27.16-.61.04-.69-.26-.03-.09-.02-.18,0-.26.09-.36.18-.73.27-1.09.03-.11,0-.19-.09-.27-.29-.24-.58-.48-.86-.73-.15-.12-.21-.28-.16-.47.04-.18.16-.31.35-.35.11-.02.23-.02.34-.03.3-.02.6-.04.9-.07.1,0,.16-.07.2-.16.14-.35.29-.71.43-1.06.11-.28.44-.38.69-.22.08.05.14.13.17.21.14.35.29.7.43,1.05.04.11.12.16.23.17.33.02.66.05.99.07.07,0,.15,0,.22.02.22.05.36.23.36.46Z"/>
    </g>
  </g>
</svg>