<?xml version="1.0" encoding="UTF-8"?>
<svg id="Layer_2" data-name="Layer 2" xmlns="http://www.w3.org/2000/svg" xmlns:xlink="http://www.w3.org/1999/xlink" viewBox="0 0 103.96 92">
  <defs>
    <style>
      .cls-1, .cls-2 {
        fill: none;
      }

      .cls-2 {
        stroke: #9877fa;
        stroke-dasharray: 8.01 8.01;
        stroke-linecap: round;
        stroke-linejoin: round;
        stroke-width: 2px;
      }

      .cls-3 {
        fill: #9777fc;
      }

      .cls-4 {
        clip-path: url(#clippath);
      }
    </style>
    <clipPath id="clippath">
      <polygon class="cls-1" points="103.96 0 103.96 29.97 103.96 92 0 92 0 0 103.96 0"/>
    </clipPath>
  </defs>
  <g id="FILE">
    <g class="cls-4">
      <circle class="cls-2" cx="104.46" cy="94" r="79"/>
    </g>
    <g>
      <path class="cls-3" d="M23.91,63.13c0,.33-.12.6-.37.82-.63.57-1.26,1.14-1.89,1.71-.22.2-.29.41-.2.7.24.82.47,1.65.69,2.47.12.44-.02.86-.37,1.13-.35.27-.8.3-1.19.08-.83-.48-1.67-.96-2.5-1.44-.07-.04-.11-.04-.18,0-.8.53-1.6,1.07-2.4,1.6-.6.39-1.38.13-1.61-.54-.07-.2-.06-.4-.02-.6.18-.84.35-1.68.53-2.52.05-.25-.02-.44-.22-.6-.68-.53-1.35-1.07-2.03-1.6-.34-.27-.5-.63-.41-1.06.09-.42.34-.72.77-.82.26-.06.52-.07.79-.1.68-.07,1.36-.14,2.05-.22.23-.03.36-.17.44-.37.3-.82.6-1.64.91-2.46.24-.64.98-.9,1.55-.55.19.11.32.28.42.48.35.79.71,1.58,1.06,2.37.11.24.28.37.54.37.75.03,1.51.06,2.26.09.17,0,.34,0,.51.04.5.09.85.51.86,1.02Z"/>
      <path class="cls-3" d="M27.17,54.88c-.1.2-.27.33-.49.38-.57.14-1.13.29-1.7.42-.2.05-.31.15-.35.35-.12.58-.25,1.15-.38,1.72-.07.3-.29.51-.59.57-.3.05-.58-.07-.75-.34-.35-.56-.7-1.12-1.05-1.68-.03-.05-.06-.06-.11-.05-.66.07-1.31.13-1.97.19-.49.05-.88-.37-.8-.84.02-.14.09-.26.18-.37.38-.45.76-.9,1.14-1.36.11-.13.13-.28.06-.44-.24-.54-.47-1.08-.71-1.62-.12-.28-.1-.54.1-.77.19-.23.44-.32.73-.25.17.05.34.12.51.19.44.18.87.35,1.31.53.14.06.27.02.39-.08.45-.4.9-.8,1.35-1.19.35-.31.88-.23,1.12.17.08.13.11.27.1.42-.04.59-.08,1.19-.12,1.78-.01.18.05.31.21.4.45.26.89.52,1.34.79.1.06.21.11.3.19.27.22.35.58.19.89Z"/>
    </g>
  </g>
</svg>