    <svg
      id="Layer_2"
      data-name="Layer 2"
      xmlns="http://www.w3.org/2000/svg"
      viewBox="0 0 55.29 232.17"
    >
      <defs>
        <style>
          .cls-1 {
            fill: #9777fc;
            animation: pulse 1s infinite alternate;
          }

          @keyframes pulse {
            0% {
              opacity: 1;
              transform: scale(0.9);
              filter: drop-shadow(0 0 5px #9876fe);
            }
            100% {
              opacity: 0.6;
              transform: scale(1);
              filter: drop-shadow(0 0 10px #9876fe);
            }
          }

          .cls-2 {
            fill: none;
            stroke: #9877fa;
            stroke-dasharray: 7 10 3 17;
            stroke-linecap: round;
            stroke-linejoin: round;
            stroke-width: 4px;
          }
        </style>
      </defs>
      <g id="FILE">
        <line class="cls-2" x1="22.49" y1="2" x2="22.49" y2="230.17" />
        <g>
          <path
            class="cls-1"
            d="M55.23,38.69c-.16.71-.58,1.23-1.22,1.57-1.65.89-3.3,1.78-4.96,2.65-.58.3-.83.72-.81,1.38.08,1.89.12,3.77.18,5.66.03,1-.49,1.83-1.38,2.22-.9.4-1.87.23-2.6-.47-1.53-1.46-3.06-2.93-4.59-4.39-.13-.12-.23-.14-.39-.08-1.99.72-3.98,1.44-5.98,2.15-1.48.53-3.03-.46-3.15-2-.04-.46.07-.89.27-1.3.83-1.71,1.64-3.41,2.47-5.12.25-.51.2-.96-.15-1.41-1.17-1.49-2.33-3-3.49-4.5-.59-.76-.73-1.6-.31-2.48.41-.86,1.11-1.35,2.08-1.35.58,0,1.16.12,1.73.2,1.5.2,3,.41,4.49.61.5.07.86-.16,1.14-.57,1.08-1.59,2.16-3.19,3.25-4.78.85-1.24,2.57-1.4,3.62-.35.34.35.55.76.64,1.24.34,1.88.69,3.76,1.02,5.64.1.57.4.93.96,1.09,1.6.45,3.19.92,4.79,1.39.36.11.73.19,1.08.35,1.02.46,1.55,1.54,1.31,2.63Z"
          />
          <path
            class="cls-1"
            d="M51.47,153.77c.08.49-.04.93-.36,1.32-.82.99-1.63,1.99-2.45,2.98-.29.34-.34.68-.15,1.09.54,1.18,1.07,2.36,1.6,3.54.28.62.17,1.29-.3,1.77-.47.49-1.12.64-1.77.38-1.35-.53-2.71-1.05-4.06-1.59-.11-.04-.18-.03-.27.05-1.07.98-2.15,1.96-3.23,2.93-.8.72-2.04.5-2.52-.44-.14-.28-.19-.58-.17-.9.08-1.3.15-2.6.23-3.9.02-.39-.13-.66-.47-.85-1.13-.64-2.26-1.29-3.39-1.94-.58-.33-.88-.83-.85-1.49.03-.65.35-1.15.96-1.4.37-.15.77-.23,1.15-.33,1-.27,2.01-.52,3.01-.79.33-.09.5-.33.57-.66.27-1.3.54-2.59.81-3.88.21-1.01,1.26-1.56,2.2-1.17.31.13.55.34.73.62.71,1.1,1.42,2.21,2.12,3.31.21.34.49.49.9.44,1.13-.13,2.27-.25,3.4-.37.26-.03.52-.07.77-.06.77.02,1.38.57,1.52,1.33Z"
          />
          <path
            class="cls-1"
            d="M16.52,89.23c.15.45.09.87-.15,1.28-.62,1.04-1.23,2.09-1.86,3.13-.22.36-.22.68.02,1.03.67,1.02,1.33,2.05,1.99,3.08.35.54.34,1.18-.02,1.7-.37.52-.96.75-1.6.61-1.34-.3-2.68-.6-4.01-.9-.11-.03-.17,0-.24.09-.86,1.07-1.73,2.13-2.59,3.19-.65.79-1.83.76-2.42-.05-.17-.24-.26-.52-.28-.81-.11-1.22-.23-2.44-.34-3.66-.03-.37-.21-.6-.56-.73-1.15-.44-2.29-.88-3.44-1.32-.58-.23-.94-.64-1-1.27-.06-.61.16-1.12.7-1.44.32-.19.68-.32,1.03-.47.9-.39,1.8-.77,2.69-1.17.3-.13.42-.38.44-.7.07-1.25.13-2.49.2-3.74.06-.97.95-1.64,1.89-1.4.31.08.56.24.77.48.82.93,1.64,1.85,2.45,2.79.25.28.53.38.9.28,1.04-.28,2.08-.56,3.12-.83.24-.06.47-.14.71-.17.72-.09,1.37.34,1.61,1.02Z"
          />
        </g>
        <path
          class="cls-1"
          d="M14.9,153.06c-1.34-.3-2.68-.6-4.01-.9-.11-.03-.17,0-.24.09"
        />
      </g>
    </svg>
